<?xml version="1.0" encoding="UTF-8"?>
<svg width="576px" height="576px" viewBox="0 0 576 576" version="1.1" xmlns="http://www.w3.org/2000/svg" xmlns:xlink="http://www.w3.org/1999/xlink">
    <!-- Generator: Sketch 47.1 (45422) - http://www.bohemiancoding.com/sketch -->
    <title>data icon</title>
    <desc>Created with Sketch.</desc>
    <defs>
        <radialGradient cx="50%" cy="50%" fx="50%" fy="50%" r="50%" gradientTransform="translate(0.500000,0.500000),rotate(90.000000),scale(1.000000,0.982531),translate(-0.500000,-0.500000)" id="radialGradient-1">
            <stop stop-color="#0F2B4C" offset="0%"></stop>
            <stop stop-color="#0F2B4C" offset="23.7922513%"></stop>
            <stop stop-color="#0F2B4C" stop-opacity="0" offset="100%"></stop>
        </radialGradient>
        <linearGradient x1="50%" y1="0%" x2="50%" y2="100%" id="linearGradient-2">
            <stop stop-color="#39CDEF" offset="0%"></stop>
            <stop stop-color="#284275" offset="100%"></stop>
        </linearGradient>
        <linearGradient x1="50%" y1="0%" x2="50%" y2="97.6084184%" id="linearGradient-3">
            <stop stop-color="#69B4FF" offset="0%"></stop>
            <stop stop-color="#AAEAFF" stop-opacity="0.4" offset="100%"></stop>
        </linearGradient>
        <linearGradient x1="50%" y1="96.341115%" x2="50%" y2="-4.47201792%" id="linearGradient-4">
            <stop stop-color="#FFFFFF" stop-opacity="0" offset="0%"></stop>
            <stop stop-color="#FFFFFF" offset="100%"></stop>
        </linearGradient>
    </defs>
    <g id="Symbols" stroke="none" stroke-width="1" fill="none" fill-rule="evenodd">
        <g id="data-icon">
            <circle id="Oval-8" fill="url(#radialGradient-1)" cx="288" cy="288" r="232"></circle>
            <rect id="Rectangle-12" fill="url(#linearGradient-2)" opacity="0.3" x="204" y="192" width="172" height="145" rx="20"></rect>
            <rect id="Rectangle-12" fill="url(#linearGradient-2)" opacity="0.3" x="209" y="197" width="162" height="135" rx="15"></rect>
            <path d="M245.524752,212.742574 C244.890445,212.742574 244.376238,213.256782 244.376238,213.891089 L244.376238,223.079208 C244.376238,223.713515 244.890445,224.227723 245.524752,224.227723 L247.821782,224.227723 C248.456089,224.227723 248.970297,223.713515 248.970297,223.079208 L248.970297,213.891089 C248.970297,213.256782 248.456089,212.742574 247.821782,212.742574 L245.524752,212.742574 Z M245.524752,207 L247.821782,207 C251.627626,207 254.712871,210.085246 254.712871,213.891089 L254.712871,223.079208 C254.712871,226.885051 251.627626,229.970297 247.821782,229.970297 L245.524752,229.970297 C241.718909,229.970297 238.633663,226.885051 238.633663,223.079208 L238.633663,213.891089 C238.633663,210.085246 241.718909,207 245.524752,207 Z M245.524752,269.019802 L247.821782,269.019802 C251.627626,269.019802 254.712871,272.105048 254.712871,275.910891 L254.712871,285.09901 C254.712871,288.904853 251.627626,291.990099 247.821782,291.990099 L245.524752,291.990099 C241.718909,291.990099 238.633663,288.904853 238.633663,285.09901 L238.633663,275.910891 C238.633663,272.105048 241.718909,269.019802 245.524752,269.019802 Z M245.524752,274.762376 C244.890445,274.762376 244.376238,275.276584 244.376238,275.910891 L244.376238,285.09901 C244.376238,285.733317 244.890445,286.247525 245.524752,286.247525 L247.821782,286.247525 C248.456089,286.247525 248.970297,285.733317 248.970297,285.09901 L248.970297,275.910891 C248.970297,275.276584 248.456089,274.762376 247.821782,274.762376 L245.524752,274.762376 Z M267.346535,207 L269.643564,207 C273.449408,207 276.534653,210.085246 276.534653,213.891089 L276.534653,223.079208 C276.534653,226.885051 273.449408,229.970297 269.643564,229.970297 L267.346535,229.970297 C263.540691,229.970297 260.455446,226.885051 260.455446,223.079208 L260.455446,213.891089 C260.455446,210.085246 263.540691,207 267.346535,207 Z M267.346535,212.742574 C266.712227,212.742574 266.19802,213.256782 266.19802,213.891089 L266.19802,223.079208 C266.19802,223.713515 266.712227,224.227723 267.346535,224.227723 L269.643564,224.227723 C270.277872,224.227723 270.792079,223.713515 270.792079,223.079208 L270.792079,213.891089 C270.792079,213.256782 270.277872,212.742574 269.643564,212.742574 L267.346535,212.742574 Z M300.653465,269.019802 L302.950495,269.019802 C306.756338,269.019802 309.841584,272.105048 309.841584,275.910891 L309.841584,285.09901 C309.841584,288.904853 306.756338,291.990099 302.950495,291.990099 L300.653465,291.990099 C296.847622,291.990099 293.762376,288.904853 293.762376,285.09901 L293.762376,275.910891 C293.762376,272.105048 296.847622,269.019802 300.653465,269.019802 Z M300.653465,274.762376 C300.019158,274.762376 299.50495,275.276584 299.50495,275.910891 L299.50495,285.09901 C299.50495,285.733317 300.019158,286.247525 300.653465,286.247525 L302.950495,286.247525 C303.584802,286.247525 304.09901,285.733317 304.09901,285.09901 L304.09901,275.910891 C304.09901,275.276584 303.584802,274.762376 302.950495,274.762376 L300.653465,274.762376 Z M312.138614,207 L314.435644,207 C318.241487,207 321.326733,210.085246 321.326733,213.891089 L321.326733,223.079208 C321.326733,226.885051 318.241487,229.970297 314.435644,229.970297 L312.138614,229.970297 C308.33277,229.970297 305.247525,226.885051 305.247525,223.079208 L305.247525,213.891089 C305.247525,210.085246 308.33277,207 312.138614,207 Z M312.138614,212.742574 C311.504307,212.742574 310.990099,213.256782 310.990099,213.891089 L310.990099,223.079208 C310.990099,223.713515 311.504307,224.227723 312.138614,224.227723 L314.435644,224.227723 C315.069951,224.227723 315.584158,223.713515 315.584158,223.079208 L315.584158,213.891089 C315.584158,213.256782 315.069951,212.742574 314.435644,212.742574 L312.138614,212.742574 Z M278.831683,269.019802 L281.128713,269.019802 C284.934556,269.019802 288.019802,272.105048 288.019802,275.910891 L288.019802,285.09901 C288.019802,288.904853 284.934556,291.990099 281.128713,291.990099 L278.831683,291.990099 C275.02584,291.990099 271.940594,288.904853 271.940594,285.09901 L271.940594,275.910891 C271.940594,272.105048 275.02584,269.019802 278.831683,269.019802 Z M278.831683,274.762376 C278.197376,274.762376 277.683168,275.276584 277.683168,275.910891 L277.683168,285.09901 C277.683168,285.733317 278.197376,286.247525 278.831683,286.247525 L281.128713,286.247525 C281.76302,286.247525 282.277228,285.733317 282.277228,285.09901 L282.277228,275.910891 C282.277228,275.276584 281.76302,274.762376 281.128713,274.762376 L278.831683,274.762376 Z M230.019802,207 C231.60557,207 232.891089,208.285519 232.891089,209.871287 L232.891089,227.09901 C232.891089,228.684778 231.60557,229.970297 230.019802,229.970297 C228.434034,229.970297 227.148515,228.684778 227.148515,227.09901 L227.148515,209.871287 C227.148515,208.285519 228.434034,207 230.019802,207 Z M230.019802,269.019802 C231.60557,269.019802 232.891089,270.305321 232.891089,271.891089 L232.891089,289.118812 C232.891089,290.70458 231.60557,291.990099 230.019802,291.990099 C228.434034,291.990099 227.148515,290.70458 227.148515,289.118812 L227.148515,271.891089 C227.148515,270.305321 228.434034,269.019802 230.019802,269.019802 Z M285.148515,207 C286.734283,207 288.019802,208.285519 288.019802,209.871287 L288.019802,227.09901 C288.019802,228.684778 286.734283,229.970297 285.148515,229.970297 C283.562747,229.970297 282.277228,228.684778 282.277228,227.09901 L282.277228,209.871287 C282.277228,208.285519 283.562747,207 285.148515,207 Z M318.455446,269.019802 C320.041214,269.019802 321.326733,270.305321 321.326733,271.891089 L321.326733,289.118812 C321.326733,290.70458 320.041214,291.990099 318.455446,291.990099 C316.869677,291.990099 315.584158,290.70458 315.584158,289.118812 L315.584158,271.891089 C315.584158,270.305321 316.869677,269.019802 318.455446,269.019802 Z M296.633663,207 C298.219431,207 299.50495,208.285519 299.50495,209.871287 L299.50495,227.09901 C299.50495,228.684778 298.219431,229.970297 296.633663,229.970297 C295.047895,229.970297 293.762376,228.684778 293.762376,227.09901 L293.762376,209.871287 C293.762376,208.285519 295.047895,207 296.633663,207 Z M263.326733,269.019802 C264.912501,269.019802 266.19802,270.305321 266.19802,271.891089 L266.19802,289.118812 C266.19802,290.70458 264.912501,291.990099 263.326733,291.990099 C261.740965,291.990099 260.455446,290.70458 260.455446,289.118812 L260.455446,271.891089 C260.455446,270.305321 261.740965,269.019802 263.326733,269.019802 Z M345.445545,207 L347.742574,207 C351.548418,207 354.633663,210.085246 354.633663,213.891089 L354.633663,223.079208 C354.633663,226.885051 351.548418,229.970297 347.742574,229.970297 L345.445545,229.970297 C341.639701,229.970297 338.554455,226.885051 338.554455,223.079208 L338.554455,213.891089 C338.554455,210.085246 341.639701,207 345.445545,207 Z M345.445545,212.742574 C344.811237,212.742574 344.29703,213.256782 344.29703,213.891089 L344.29703,223.079208 C344.29703,223.713515 344.811237,224.227723 345.445545,224.227723 L347.742574,224.227723 C348.376881,224.227723 348.891089,223.713515 348.891089,223.079208 L348.891089,213.891089 C348.891089,213.256782 348.376881,212.742574 347.742574,212.742574 L345.445545,212.742574 Z M345.445545,269.019802 L347.742574,269.019802 C351.548418,269.019802 354.633663,272.105048 354.633663,275.910891 L354.633663,285.09901 C354.633663,288.904853 351.548418,291.990099 347.742574,291.990099 L345.445545,291.990099 C341.639701,291.990099 338.554455,288.904853 338.554455,285.09901 L338.554455,275.910891 C338.554455,272.105048 341.639701,269.019802 345.445545,269.019802 Z M345.445545,274.762376 C344.811237,274.762376 344.29703,275.276584 344.29703,275.910891 L344.29703,285.09901 C344.29703,285.733317 344.811237,286.247525 345.445545,286.247525 L347.742574,286.247525 C348.376881,286.247525 348.891089,285.733317 348.891089,285.09901 L348.891089,275.910891 C348.891089,275.276584 348.376881,274.762376 347.742574,274.762376 L345.445545,274.762376 Z M329.940594,207 C331.526362,207 332.811881,208.285519 332.811881,209.871287 L332.811881,227.09901 C332.811881,228.684778 331.526362,229.970297 329.940594,229.970297 C328.354826,229.970297 327.069307,228.684778 327.069307,227.09901 L327.069307,209.871287 C327.069307,208.285519 328.354826,207 329.940594,207 Z M329.940594,269.019802 C331.526362,269.019802 332.811881,270.305321 332.811881,271.891089 L332.811881,289.118812 C332.811881,290.70458 331.526362,291.990099 329.940594,291.990099 C328.354826,291.990099 327.069307,290.70458 327.069307,289.118812 L327.069307,271.891089 C327.069307,270.305321 328.354826,269.019802 329.940594,269.019802 Z M333.960396,238.009901 L336.257426,238.009901 C340.063269,238.009901 343.148515,241.095147 343.148515,244.90099 L343.148515,254.089109 C343.148515,257.894952 340.063269,260.980198 336.257426,260.980198 L333.960396,260.980198 C330.154553,260.980198 327.069307,257.894952 327.069307,254.089109 L327.069307,244.90099 C327.069307,241.095147 330.154553,238.009901 333.960396,238.009901 Z M333.960396,243.752475 C333.326089,243.752475 332.811881,244.266683 332.811881,244.90099 L332.811881,254.089109 C332.811881,254.723416 333.326089,255.237624 333.960396,255.237624 L336.257426,255.237624 C336.891733,255.237624 337.405941,254.723416 337.405941,254.089109 L337.405941,244.90099 C337.405941,244.266683 336.891733,243.752475 336.257426,243.752475 L333.960396,243.752475 Z M345.445545,300.029703 L347.742574,300.029703 C351.548418,300.029703 354.633663,303.114949 354.633663,306.920792 L354.633663,316.108911 C354.633663,319.914754 351.548418,323 347.742574,323 L345.445545,323 C341.639701,323 338.554455,319.914754 338.554455,316.108911 L338.554455,306.920792 C338.554455,303.114949 341.639701,300.029703 345.445545,300.029703 Z M345.445545,305.772277 C344.811237,305.772277 344.29703,306.286485 344.29703,306.920792 L344.29703,316.108911 C344.29703,316.743218 344.811237,317.257426 345.445545,317.257426 L347.742574,317.257426 C348.376881,317.257426 348.891089,316.743218 348.891089,316.108911 L348.891089,306.920792 C348.891089,306.286485 348.376881,305.772277 347.742574,305.772277 L345.445545,305.772277 Z M232.891089,238.009901 L235.188119,238.009901 C238.993962,238.009901 242.079208,241.095147 242.079208,244.90099 L242.079208,254.089109 C242.079208,257.894952 238.993962,260.980198 235.188119,260.980198 L232.891089,260.980198 C229.085246,260.980198 226,257.894952 226,254.089109 L226,244.90099 C226,241.095147 229.085246,238.009901 232.891089,238.009901 Z M232.891089,243.752475 C232.256782,243.752475 231.742574,244.266683 231.742574,244.90099 L231.742574,254.089109 C231.742574,254.723416 232.256782,255.237624 232.891089,255.237624 L235.188119,255.237624 C235.822426,255.237624 236.336634,254.723416 236.336634,254.089109 L236.336634,244.90099 C236.336634,244.266683 235.822426,243.752475 235.188119,243.752475 L232.891089,243.752475 Z M255.861386,300.029703 L258.158416,300.029703 C261.964259,300.029703 265.049505,303.114949 265.049505,306.920792 L265.049505,316.108911 C265.049505,319.914754 261.964259,323 258.158416,323 L255.861386,323 C252.055543,323 248.970297,319.914754 248.970297,316.108911 L248.970297,306.920792 C248.970297,303.114949 252.055543,300.029703 255.861386,300.029703 Z M255.861386,305.772277 C255.227079,305.772277 254.712871,306.286485 254.712871,306.920792 L254.712871,316.108911 C254.712871,316.743218 255.227079,317.257426 255.861386,317.257426 L258.158416,317.257426 C258.792723,317.257426 259.306931,316.743218 259.306931,316.108911 L259.306931,306.920792 C259.306931,306.286485 258.792723,305.772277 258.158416,305.772277 L255.861386,305.772277 Z M277.683168,238.009901 L279.980198,238.009901 C283.786041,238.009901 286.871287,241.095147 286.871287,244.90099 L286.871287,254.089109 C286.871287,257.894952 283.786041,260.980198 279.980198,260.980198 L277.683168,260.980198 C273.877325,260.980198 270.792079,257.894952 270.792079,254.089109 L270.792079,244.90099 C270.792079,241.095147 273.877325,238.009901 277.683168,238.009901 Z M277.683168,243.752475 C277.048861,243.752475 276.534653,244.266683 276.534653,244.90099 L276.534653,254.089109 C276.534653,254.723416 277.048861,255.237624 277.683168,255.237624 L279.980198,255.237624 C280.614505,255.237624 281.128713,254.723416 281.128713,254.089109 L281.128713,244.90099 C281.128713,244.266683 280.614505,243.752475 279.980198,243.752475 L277.683168,243.752475 Z M277.683168,300.029703 L279.980198,300.029703 C283.786041,300.029703 286.871287,303.114949 286.871287,306.920792 L286.871287,316.108911 C286.871287,319.914754 283.786041,323 279.980198,323 L277.683168,323 C273.877325,323 270.792079,319.914754 270.792079,316.108911 L270.792079,306.920792 C270.792079,303.114949 273.877325,300.029703 277.683168,300.029703 Z M277.683168,305.772277 C277.048861,305.772277 276.534653,306.286485 276.534653,306.920792 L276.534653,316.108911 C276.534653,316.743218 277.048861,317.257426 277.683168,317.257426 L279.980198,317.257426 C280.614505,317.257426 281.128713,316.743218 281.128713,316.108911 L281.128713,306.920792 C281.128713,306.286485 280.614505,305.772277 279.980198,305.772277 L277.683168,305.772277 Z M351.762376,238.009901 C353.348144,238.009901 354.633663,239.29542 354.633663,240.881188 L354.633663,258.108911 C354.633663,259.694679 353.348144,260.980198 351.762376,260.980198 C350.176608,260.980198 348.891089,259.694679 348.891089,258.108911 L348.891089,240.881188 C348.891089,239.29542 350.176608,238.009901 351.762376,238.009901 Z M230.019802,300.029703 C231.60557,300.029703 232.891089,301.315222 232.891089,302.90099 L232.891089,320.128713 C232.891089,321.714481 231.60557,323 230.019802,323 C228.434034,323 227.148515,321.714481 227.148515,320.128713 L227.148515,302.90099 C227.148515,301.315222 228.434034,300.029703 230.019802,300.029703 Z M250.693069,238.009901 C252.278837,238.009901 253.564356,239.29542 253.564356,240.881188 L253.564356,258.108911 C253.564356,259.694679 252.278837,260.980198 250.693069,260.980198 C249.107301,260.980198 247.821782,259.694679 247.821782,258.108911 L247.821782,240.881188 C247.821782,239.29542 249.107301,238.009901 250.693069,238.009901 Z M241.50495,300.029703 C243.090719,300.029703 244.376238,301.315222 244.376238,302.90099 L244.376238,320.128713 C244.376238,321.714481 243.090719,323 241.50495,323 C239.919182,323 238.633663,321.714481 238.633663,320.128713 L238.633663,302.90099 C238.633663,301.315222 239.919182,300.029703 241.50495,300.029703 Z M262.178218,238.009901 C263.763986,238.009901 265.049505,239.29542 265.049505,240.881188 L265.049505,258.108911 C265.049505,259.694679 263.763986,260.980198 262.178218,260.980198 C260.59245,260.980198 259.306931,259.694679 259.306931,258.108911 L259.306931,240.881188 C259.306931,239.29542 260.59245,238.009901 262.178218,238.009901 Z M329.940594,300.029703 C331.526362,300.029703 332.811881,301.315222 332.811881,302.90099 L332.811881,320.128713 C332.811881,321.714481 331.526362,323 329.940594,323 C328.354826,323 327.069307,321.714481 327.069307,320.128713 L327.069307,302.90099 C327.069307,301.315222 328.354826,300.029703 329.940594,300.029703 Z M310.990099,238.009901 L313.287129,238.009901 C317.092972,238.009901 320.178218,241.095147 320.178218,244.90099 L320.178218,254.089109 C320.178218,257.894952 317.092972,260.980198 313.287129,260.980198 L310.990099,260.980198 C307.184256,260.980198 304.09901,257.894952 304.09901,254.089109 L304.09901,244.90099 C304.09901,241.095147 307.184256,238.009901 310.990099,238.009901 Z M310.990099,243.752475 C310.355792,243.752475 309.841584,244.266683 309.841584,244.90099 L309.841584,254.089109 C309.841584,254.723416 310.355792,255.237624 310.990099,255.237624 L313.287129,255.237624 C313.921436,255.237624 314.435644,254.723416 314.435644,254.089109 L314.435644,244.90099 C314.435644,244.266683 313.921436,243.752475 313.287129,243.752475 L310.990099,243.752475 Z M310.990099,300.029703 L313.287129,300.029703 C317.092972,300.029703 320.178218,303.114949 320.178218,306.920792 L320.178218,316.108911 C320.178218,319.914754 317.092972,323 313.287129,323 L310.990099,323 C307.184256,323 304.09901,319.914754 304.09901,316.108911 L304.09901,306.920792 C304.09901,303.114949 307.184256,300.029703 310.990099,300.029703 Z M310.990099,305.772277 C310.355792,305.772277 309.841584,306.286485 309.841584,306.920792 L309.841584,316.108911 C309.841584,316.743218 310.355792,317.257426 310.990099,317.257426 L313.287129,317.257426 C313.921436,317.257426 314.435644,316.743218 314.435644,316.108911 L314.435644,306.920792 C314.435644,306.286485 313.921436,305.772277 313.287129,305.772277 L310.990099,305.772277 Z M295.485149,238.009901 C297.070917,238.009901 298.356436,239.29542 298.356436,240.881188 L298.356436,258.108911 C298.356436,259.694679 297.070917,260.980198 295.485149,260.980198 C293.89938,260.980198 292.613861,259.694679 292.613861,258.108911 L292.613861,240.881188 C292.613861,239.29542 293.89938,238.009901 295.485149,238.009901 Z M295.485149,300.029703 C297.070917,300.029703 298.356436,301.315222 298.356436,302.90099 L298.356436,320.128713 C298.356436,321.714481 297.070917,323 295.485149,323 C293.89938,323 292.613861,321.714481 292.613861,320.128713 L292.613861,302.90099 C292.613861,301.315222 293.89938,300.029703 295.485149,300.029703 Z" id="Combined-Shape" fill="url(#linearGradient-3)" fill-rule="nonzero" opacity="0.200000003"></path>
            <polygon id="Combined-Shape" fill="url(#linearGradient-4)" style="mix-blend-mode: overlay;" points="315 372 265 372 265 284 241 284 290 235 339 284 315 284"></polygon>
        </g>
    </g>
</svg>