<?xml version="1.0" encoding="UTF-8"?>
<svg width="32px" height="32px" viewBox="0 0 32 32" version="1.1" xmlns="http://www.w3.org/2000/svg" xmlns:xlink="http://www.w3.org/1999/xlink">
    <!-- Generator: Sketch 46.1 (44463) - http://www.bohemiancoding.com/sketch -->
    <title>Icon_01</title>
    <desc>Created with Sketch.</desc>
    <defs></defs>
    <g id="Symbols" stroke="none" stroke-width="1" fill="none" fill-rule="evenodd">
        <g id="Icon_01">
            <circle id="Oval" fill="#ED94FF" opacity="0.2" cx="16" cy="16" r="16"></circle>
            <path d="M22,9 L25.5022978,9 L19.5022978,17.2727273 L19.5022978,22 L18,22 L18,16.7272727 L23.5606778,9 L8.41705977,9 L14,16.7272727 L14,22 L12.619045,22 L12.619045,17.2727273 L6.61904502,9 L18,9 C18,10.1045695 18.8954305,11 20,11 C21.1045695,11 22,10.1045695 22,9 Z M12.5,12 C11.6715729,12 11,11.3284271 11,10.5 C11,9.67157288 11.6715729,9 12.5,9 C13.3284271,9 14,9.67157288 14,10.5 C14,11.3284271 13.3284271,12 12.5,12 Z M15.5,16 C14.6715729,16 14,15.3284271 14,14.5 C14,13.6715729 14.6715729,13 15.5,13 C16.3284271,13 17,13.6715729 17,14.5 C17,15.3284271 16.3284271,16 15.5,16 Z M19,14 C18.4477153,14 18,13.5522847 18,13 C18,12.4477153 18.4477153,12 19,12 C19.5522847,12 20,12.4477153 20,13 C20,13.5522847 19.5522847,14 19,14 Z M16,12 C15.4477153,12 15,11.5522847 15,11 C15,10.4477153 15.4477153,10 16,10 C16.5522847,10 17,10.4477153 17,11 C17,11.5522847 16.5522847,12 16,12 Z M16,26 C15.4477153,26 15,25.5522847 15,25 C15,24.4477153 15.4477153,24 16,24 C16.5522847,24 17,24.4477153 17,25 C17,25.5522847 16.5522847,26 16,26 Z M16,20 C15.4477153,20 15,19.5522847 15,19 C15,18.4477153 15.4477153,18 16,18 C16.5522847,18 17,18.4477153 17,19 C17,19.5522847 16.5522847,20 16,20 Z" id="Combined-Shape" fill="#FFFFFF" opacity="0.699999988" style="mix-blend-mode: overlay;"></path>
        </g>
    </g>
</svg>