<?xml version="1.0" encoding="UTF-8"?>
<svg width="450px" height="450px" viewBox="0 0 450 450" version="1.1" xmlns="http://www.w3.org/2000/svg" xmlns:xlink="http://www.w3.org/1999/xlink">
    <!-- Generator: Sketch 47.1 (45422) - http://www.bohemiancoding.com/sketch -->
    <title>Obsidian logo</title>
    <desc>Created with Sketch.</desc>
    <defs>
        <radialGradient cx="50%" cy="50%" fx="50%" fy="50%" r="50%" gradientTransform="translate(0.500000,0.500000),rotate(90.000000),scale(1.000000,0.982531),translate(-0.500000,-0.500000)" id="radialGradient-1">
            <stop stop-color="#0F2B4C" offset="0%"></stop>
            <stop stop-color="#0F2B4C" offset="23.7922513%"></stop>
            <stop stop-color="#0F2B4C" stop-opacity="0" offset="100%"></stop>
        </radialGradient>
        <linearGradient x1="50%" y1="0%" x2="91.210637%" y2="104.246368%" id="linearGradient-2">
            <stop stop-color="#15B5FF" offset="0%"></stop>
            <stop stop-color="#020D0A" offset="100%"></stop>
        </linearGradient>
        <filter x="0.0%" y="0.0%" width="100.0%" height="100.0%" filterUnits="objectBoundingBox" id="filter-3">
            <feGaussianBlur stdDeviation="0" in="SourceGraphic"></feGaussianBlur>
        </filter>
        <filter x="0.0%" y="-0.0%" width="100.0%" height="100.0%" filterUnits="objectBoundingBox" id="filter-4">
            <feGaussianBlur stdDeviation="0" in="SourceGraphic"></feGaussianBlur>
        </filter>
        <filter x="0.0%" y="0.0%" width="100.0%" height="100.0%" filterUnits="objectBoundingBox" id="filter-5">
            <feGaussianBlur stdDeviation="0" in="SourceGraphic"></feGaussianBlur>
        </filter>
        <filter x="0.0%" y="-0.0%" width="100.0%" height="100.0%" filterUnits="objectBoundingBox" id="filter-6">
            <feGaussianBlur stdDeviation="0" in="SourceGraphic"></feGaussianBlur>
        </filter>
        <filter x="-0.0%" y="-0.0%" width="100.0%" height="100.0%" filterUnits="objectBoundingBox" id="filter-7">
            <feGaussianBlur stdDeviation="0" in="SourceGraphic"></feGaussianBlur>
        </filter>
        <filter x="0.0%" y="0.0%" width="100.0%" height="100.0%" filterUnits="objectBoundingBox" id="filter-8">
            <feGaussianBlur stdDeviation="0" in="SourceGraphic"></feGaussianBlur>
        </filter>
        <filter x="-22.2%" y="-27.2%" width="144.5%" height="154.4%" filterUnits="objectBoundingBox" id="filter-9">
            <feGaussianBlur stdDeviation="8.76395089" in="SourceGraphic"></feGaussianBlur>
        </filter>
        <filter x="-104.4%" y="-92.1%" width="308.7%" height="284.2%" filterUnits="objectBoundingBox" id="filter-10">
            <feGaussianBlur stdDeviation="23.6579241" in="SourceGraphic"></feGaussianBlur>
        </filter>
        <filter x="-87.3%" y="-174.3%" width="274.5%" height="448.5%" filterUnits="objectBoundingBox" id="filter-11">
            <feGaussianBlur stdDeviation="23.6579241" in="SourceGraphic"></feGaussianBlur>
        </filter>
    </defs>
    <g id="Symbols" stroke="none" stroke-width="1" fill="none" fill-rule="evenodd">
        <g id="Obsidian-logo">
            <g id="Group">
                <g id="Group-2" fill="url(#radialGradient-1)">
                    <circle id="Oval-8" cx="225" cy="225" r="225"></circle>
                </g>
                <g id="Group-4" transform="translate(4.000000, 11.000000)">
                    <path d="M122.949058,146.218483 C64.3346124,178.822658 45.5897166,230.556973 106.786301,270.227027 C167.982885,309.897081 227.476714,350.688113 279.979108,313.141415 C332.481502,275.594718 416.982446,155.027791 368.544113,118.357252 C320.105779,81.6867122 181.563504,113.614307 122.949058,146.218483 Z" id="Path-6-Copy" fill="#07151F"></path>
                    <path d="M305.680594,289.729127 C355.703045,240.204501 412.139658,146.847416 370.544113,115.357252 C322.105779,78.6867122 183.563504,110.614307 124.949058,143.218483 C111.740919,150.565485 100.557268,158.883874 91.8566184,167.816716 C100.246742,159.641188 110.731843,152.014285 122.949058,145.218483 C181.563504,112.614307 320.105779,80.6867122 368.544113,117.357252 C409.586175,148.428399 355.187611,239.730983 305.680594,289.729127 Z" id="Combined-Shape" fill="url(#linearGradient-2)"></path>
                    <path d="M366.217047,209.642852 C345.20814,252.151205 307.403987,296.813574 278.979108,317.141415 C226.476714,354.688113 166.982885,313.897081 105.786301,274.227027 C67.995291,249.729395 60.6898859,220.631069 74.4332974,194.278213 C62.0779686,220.096608 69.9488663,248.347541 106.786301,272.227027 C167.982885,311.897081 227.476714,352.688113 279.979108,315.141415 C307.958525,295.132143 345.025545,251.545086 366.217047,209.642852 Z" id="Combined-Shape" fill="url(#linearGradient-2)"></path>
                    <path d="M231,302 L231,226.170879 L361.924611,152 C364.361062,194.199133 307.200116,264.467764 268.88994,289.697466 C256.652869,297.756361 243.995562,301.47913 231,302 Z" id="Combined-Shape-Copy-4" fill="#10343C" opacity="0.900000036"></path>
                    <path d="M126.600591,171 L221,225.770972 L221,315 C194.287557,307.891269 166.240062,286.021706 137.722487,264.512223 C99.3063148,235.536689 100.93947,199.528722 126.600591,171 Z" id="Combined-Shape-Copy-6" fill="#0B2530" opacity="0.569999993"></path>
                    <path d="M231,272.797235 L231,227.109771 L356.903054,155 C359.448086,188.268246 311.318517,244.211184 279.11381,264.233863 C263.787214,273.76289 247.672549,275.615134 231,272.797235 Z" id="Combined-Shape-Copy-3" fill="#3C9EB5" opacity="0.200000003" filter="url(#filter-3)"></path>
                    <path d="M231,242.659138 L231,227.109771 L343.865977,162.466861 C329.997926,191.329152 303.129955,222.428461 283.116402,236.29641 C266.640817,247.712802 249.150295,248.110252 231,242.659138 Z" id="Combined-Shape-Copy-3" fill="#3C9EB5" opacity="0.200000003" filter="url(#filter-4)"></path>
                    <path d="M144.035513,181 L221,225.678859 L221,288 C198.880886,282.391765 175.700879,266.652545 152.141588,251.166516 C119.008312,229.387302 121.094947,202.218457 144.035513,181 Z" id="Combined-Shape-Copy-5" fill="#1B6672" opacity="0.200000003" filter="url(#filter-5)"></path>
                    <path d="M175.715063,199.390379 L221,225.678859 L221,276.443988 C206.033262,271.108857 190.618056,262.682184 175.012786,254.358467 C142.600773,237.070177 148.682419,215.001885 175.715063,199.390379 Z" id="Combined-Shape-Copy-5" fill="#1B6672" opacity="0.200000003" filter="url(#filter-6)"></path>
                    <path d="M339,153.972247 L226.394311,219 L132,164.488989 C184.924194,138.336177 292.324319,115.27464 331.118229,144.899793 C334.479487,147.466634 337.080857,150.517211 339,153.972247 Z" id="Combined-Shape-Copy-2" fill="#0D2D3B" opacity="0.5"></path>
                    <path d="M308,171.686021 L226.294965,218 L151,175.319528 C193.20427,158.861888 271.922371,145.306344 300.965963,164.133985 C304.159917,166.20448 306.467531,168.753943 308,171.686021 Z" id="Combined-Shape-Copy" fill="#1D7279" opacity="0.200000003" filter="url(#filter-7)"></path>
                    <path d="M246.592194,206.494645 L226.294965,218 L165.921448,183.777656 C193.811667,176.304415 226.231394,173.595492 240.736895,184.79148 C246.887755,189.538986 248.286205,197.344267 246.592194,206.494645 Z" id="Combined-Shape-Copy" fill="#1D7279" opacity="0.200000003" filter="url(#filter-8)"></path>
                    <path d="M231,252.659138 L231,227.109771 L349.273132,159.369965 C338.430997,191.347736 306.210314,230.293995 283.116402,246.29641 C266.640817,257.712802 249.150295,258.110252 231,252.659138 Z" id="Combined-Shape-Copy-3" fill="#35D8FF" style="mix-blend-mode: overlay;" filter="url(#filter-9)"></path>
                    <path d="M175.715063,199.390379 L221,225.678859 L221,276.443988 C206.033262,271.108857 190.618056,262.682184 175.012786,254.358467 C142.600773,237.070177 148.682419,215.001885 175.715063,199.390379 Z" id="Combined-Shape-Copy-5" fill="#95EBFF" style="mix-blend-mode: overlay;" filter="url(#filter-10)"></path>
                    <path d="M246.592194,206.494645 L226.294965,218 L165.921448,183.777656 C193.811667,176.304415 226.231394,173.595492 240.736895,184.79148 C246.887755,189.538986 248.286205,197.344267 246.592194,206.494645 Z" id="Combined-Shape-Copy" fill="#95EBFF" style="mix-blend-mode: overlay;" filter="url(#filter-11)"></path>
                    <g id="Looper_Group" style="mix-blend-mode: soft-light;" transform="translate(221.000000, 214.000000) rotate(-360.000000) translate(-221.000000, -214.000000) ">
                        <g id="original_Path-6-Copy_12297633-Group">
                            <path d="M102.524404,135.713144 C35.7512378,172.82309 14.3971837,231.706887 84.111904,276.859188 C153.826624,322.01149 221.601578,368.439683 281.411938,325.704178 C341.222297,282.968673 437.485181,145.739865 382.304571,104.001599 C327.12396,62.263333 169.29757,98.6031971 102.524404,135.713144 Z" id="duplicate_9_original_Path-6-Copy_12297633" stroke="#25E2F5" opacity="0.920180437" transform="translate(219.919315, 214.000000) rotate(40.000000) translate(-219.919315, -214.000000) "></path>
                            <path d="M103.605089,135.713144 C36.8319224,172.82309 15.4778683,231.706887 85.1925886,276.859188 C154.907309,322.01149 222.682263,368.439683 282.492622,325.704178 C342.302982,282.968673 438.565866,145.739865 383.385255,104.001599 C328.204645,62.263333 170.378255,98.6031971 103.605089,135.713144 Z" id="duplicate_8_original_Path-6-Copy_12297633" stroke="#25E2F5" opacity="0.698640321" transform="translate(221.000000, 214.000000) rotate(35.000000) translate(-221.000000, -214.000000) "></path>
                            <path d="M102.524404,135.713144 C35.7512378,172.82309 14.3971837,231.706887 84.111904,276.859188 C153.826624,322.01149 221.601578,368.439683 281.411938,325.704178 C341.222297,282.968673 437.485181,145.739865 382.304571,104.001599 C327.12396,62.263333 169.29757,98.6031971 102.524404,135.713144 Z" id="duplicate_7_original_Path-6-Copy_12297633" stroke="#25E2F5" opacity="0.0945345507" transform="translate(219.919315, 214.000000) rotate(30.000000) translate(-219.919315, -214.000000) "></path>
                            <path d="M102.524404,135.713144 C35.7512378,172.82309 14.3971837,231.706887 84.111904,276.859188 C153.826624,322.01149 221.601578,368.439683 281.411938,325.704178 C341.222297,282.968673 437.485181,145.739865 382.304571,104.001599 C327.12396,62.263333 169.29757,98.6031971 102.524404,135.713144 Z" id="duplicate_6_original_Path-6-Copy_12297633" stroke="#25E2F5" opacity="0.690558348" transform="translate(219.919315, 214.000000) rotate(25.000000) translate(-219.919315, -214.000000) "></path>
                            <path d="M103.605089,134.632336 C36.8319224,171.742282 15.4778683,230.626079 85.1925886,275.77838 C154.907309,320.930682 222.682263,367.358875 282.492622,324.62337 C342.302982,281.887864 438.565866,144.659057 383.385255,102.920791 C328.204645,61.1825249 170.378255,97.522389 103.605089,134.632336 Z" id="duplicate_5_original_Path-6-Copy_12297633" stroke="#BDF9FF" stroke-width="2" transform="translate(221.000000, 212.919192) rotate(20.000000) translate(-221.000000, -212.919192) "></path>
                            <path d="M103.605089,135.713144 C36.8319224,172.82309 15.4778683,231.706887 85.1925886,276.859188 C154.907309,322.01149 222.682263,368.439683 282.492622,325.704178 C342.302982,282.968673 438.565866,145.739865 383.385255,104.001599 C328.204645,62.263333 170.378255,98.6031971 103.605089,135.713144 Z" id="duplicate_4_original_Path-6-Copy_12297633" stroke="#25E2F5" opacity="0.0269684862" transform="translate(221.000000, 214.000000) rotate(15.000000) translate(-221.000000, -214.000000) "></path>
                            <path d="M103.605089,135.713144 C36.8319224,172.82309 15.4778683,231.706887 85.1925886,276.859188 C154.907309,322.01149 222.682263,368.439683 282.492622,325.704178 C342.302982,282.968673 438.565866,145.739865 383.385255,104.001599 C328.204645,62.263333 170.378255,98.6031971 103.605089,135.713144 Z" id="duplicate_3_original_Path-6-Copy_12297633" stroke="#25E2F5" opacity="0.583331957" transform="translate(221.000000, 214.000000) rotate(10.000000) translate(-221.000000, -214.000000) "></path>
                            <path d="M103.605089,135.713144 C36.8319224,172.82309 15.4778683,231.706887 85.1925886,276.859188 C154.907309,322.01149 222.682263,368.439683 282.492622,325.704178 C342.302982,282.968673 438.565866,145.739865 383.385255,104.001599 C328.204645,62.263333 170.378255,98.6031971 103.605089,135.713144 Z" id="duplicate_2_original_Path-6-Copy_12297633" stroke="#25E2F5" opacity="0.280599481" transform="translate(221.000000, 214.000000) rotate(5.000000) translate(-221.000000, -214.000000) "></path>
                            <path d="M103.605089,134.632336 C36.8319224,171.742282 15.4778683,230.626079 85.1925886,275.77838 C154.907309,320.930682 222.682263,367.358875 282.492622,324.62337 C342.302982,281.887864 438.565866,144.659057 383.385255,102.920791 C328.204645,61.1825249 170.378255,97.522389 103.605089,134.632336 Z" id="duplicate_1_original_Path-6-Copy_12297633" stroke="#25E2F5" opacity="0.655628837"></path>
                        </g>
                    </g>
                    <path d="M138.383274,148.270706 C86.4031826,178.533846 69.779953,226.553549 124.04992,263.375225 C178.319886,300.196902 231.079827,338.059067 277.639667,303.208287 C324.199507,268.357506 399.136097,156.447491 356.180322,122.409959 C313.224546,88.3724266 190.363364,118.007565 138.383274,148.270706 Z" id="duplicate_1_original_Path-6-Copy_12297633" stroke="url(#linearGradient-2)" opacity="0.300000012"></path>
                </g>
            </g>
        </g>
    </g>
</svg>