<?xml version="1.0" encoding="UTF-8"?>
<svg width="112px" height="26px" viewBox="0 0 112 26" version="1.1" xmlns="http://www.w3.org/2000/svg" xmlns:xlink="http://www.w3.org/1999/xlink">
    <!-- Generator: Sketch 47.1 (45422) - http://www.bohemiancoding.com/sketch -->
    <title>Obsidian logo small</title>
    <desc>Created with Sketch.</desc>
    <defs></defs>
    <g id="Symbols" stroke="none" stroke-width="1" fill="none" fill-rule="evenodd">
        <g id="Obsidian-logo-small">
            <g id="Group-7">
                <path d="M54.1972656,13.3652344 C54.1972656,14.6132875 53.9658226,15.7177686 53.5029297,16.6787109 C53.0400367,17.6396532 52.3823285,18.3793919 51.5297852,18.8979492 C50.6772418,19.4165065 49.7060601,19.6757812 48.6162109,19.6757812 C47.5263617,19.6757812 46.5595745,19.4252955 45.7158203,18.9243164 C44.8720661,18.4233373 44.2143578,17.7070359 43.7426758,16.7753906 C43.2709937,15.8437453 43.0234376,14.7744201 43,13.5673828 L43,12.8466797 C43,11.5927672 43.2299782,10.4868212 43.6899414,9.52880859 C44.1499046,8.57079599 44.8090777,7.83105729 45.6674805,7.30957031 C46.5258832,6.78808333 47.5029242,6.52734375 48.5986328,6.52734375 C49.6826226,6.52734375 50.6494098,6.78515367 51.4990234,7.30078125 C52.3486371,7.81640883 53.009275,8.55028821 53.480957,9.50244141 C53.9526391,10.4545946 54.1914062,11.5458923 54.1972656,12.7763672 L54.1972656,13.3652344 Z M51.0595703,12.8291016 C51.0595703,11.5576108 50.8471701,10.5922885 50.4223633,9.93310547 C49.9975565,9.27392249 49.3896524,8.94433594 48.5986328,8.94433594 C47.0517501,8.94433594 46.2343754,10.1044806 46.1464844,12.4248047 L46.1376953,13.3652344 C46.1376953,14.6191469 46.345701,15.5830044 46.7617188,16.2568359 C47.1777365,16.9306674 47.7958943,17.2675781 48.6162109,17.2675781 C49.3955117,17.2675781 49.9960916,16.9365267 50.4179688,16.2744141 C50.8398459,15.6123014 51.0537109,14.6601625 51.0595703,13.4179688 L51.0595703,12.8291016 Z M64.2804687,14.8242188 C64.2804687,16.3828203 63.9582063,17.5810505 63.3136719,18.4189453 C62.6691374,19.2568401 61.7609434,19.6757812 60.5890625,19.6757812 C59.6222608,19.6757812 58.8429717,19.291996 58.2511719,18.5244141 L58.128125,19.5 L55.4738281,19.5 L55.4738281,6 L58.4357422,6 L58.4357422,10.7548828 C58.9865262,10.1279266 59.6984331,9.81445312 60.5714844,9.81445312 C61.755084,9.81445312 62.6691374,10.2392536 63.3136719,11.0888672 C63.9582063,11.9384808 64.2804687,13.1337814 64.2804687,14.6748047 L64.2804687,14.8242188 Z M61.3097656,14.6396484 C61.3097656,13.7255814 61.1881848,13.0737324 60.9450195,12.684082 C60.7018542,12.2944316 60.3283228,12.0996094 59.8244141,12.0996094 C59.156442,12.0996094 58.693556,12.3544896 58.4357422,12.8642578 L58.4357422,16.6435547 C58.6876966,17.1474635 59.1564419,17.3994141 59.8419922,17.3994141 C60.5392613,17.3994141 60.9816397,17.0595737 61.1691406,16.3798828 C61.2628911,16.0458968 61.3097656,15.4658244 61.3097656,14.6396484 Z M70.3646484,16.828125 C70.3646484,16.5761706 70.2328138,16.3740242 69.9691406,16.2216797 C69.7054674,16.0693352 69.2044959,15.9111336 68.4662109,15.7470703 C67.727926,15.583007 67.1185571,15.3676771 66.6380859,15.1010742 C66.1576148,14.8344713 65.7914075,14.5107441 65.5394531,14.1298828 C65.2874987,13.7490215 65.1615234,13.3125025 65.1615234,12.8203125 C65.1615234,11.9472613 65.5218714,11.2280302 66.2425781,10.6625977 C66.9632848,10.0971651 67.9066348,9.81445312 69.0726562,9.81445312 C70.3265688,9.81445312 71.3343712,10.09863 72.0960937,10.6669922 C72.8578163,11.2353544 73.2386719,11.9824172 73.2386719,12.9082031 L70.2679687,12.9082031 C70.2679687,12.1464806 69.8666056,11.765625 69.0638672,11.765625 C68.7533188,11.765625 68.4925792,11.8520499 68.2816406,12.0249023 C68.0707021,12.1977548 67.9652344,12.4130846 67.9652344,12.6708984 C67.9652344,12.9345716 68.0941393,13.1484367 68.3519531,13.3125 C68.6097669,13.4765633 69.0213839,13.6113276 69.5868164,13.7167969 C70.1522489,13.8222662 70.648826,13.9482415 71.0765625,14.0947266 C72.5062571,14.5869165 73.2210937,15.4687436 73.2210937,16.7402344 C73.2210937,17.6074262 72.8358437,18.3134738 72.065332,18.8583984 C71.2948204,19.403323 70.2972717,19.6757812 69.0726562,19.6757812 C68.258199,19.6757812 67.5316438,19.5292983 66.8929687,19.2363281 C66.2542937,18.9433579 65.7562518,18.5449244 65.3988281,18.0410156 C65.0414045,17.5371069 64.8626953,17.0068387 64.8626953,16.4501953 L67.63125,16.4501953 C67.6429688,16.8896506 67.7894517,17.2104482 68.0707031,17.4125977 C68.3519545,17.6147471 68.7123025,17.7158203 69.1517578,17.7158203 C69.5560567,17.7158203 69.8592763,17.6337899 70.0614258,17.4697266 C70.2635752,17.3056632 70.3646484,17.0917982 70.3646484,16.828125 Z M77.5298828,19.5 L74.5591797,19.5 L74.5591797,9.99023438 L77.5298828,9.99023438 L77.5298828,19.5 Z M74.3833984,7.53808594 C74.3833984,7.11620883 74.5357407,6.77050916 74.8404297,6.50097656 C75.1451187,6.23144396 75.5406226,6.09667969 76.0269531,6.09667969 C76.5132837,6.09667969 76.9087875,6.23144396 77.2134766,6.50097656 C77.5181656,6.77050916 77.6705078,7.11620883 77.6705078,7.53808594 C77.6705078,7.95996305 77.5181656,8.30566271 77.2134766,8.57519531 C76.9087875,8.84472791 76.5132837,8.97949219 76.0269531,8.97949219 C75.5406226,8.97949219 75.1451187,8.84472791 74.8404297,8.57519531 C74.5357407,8.30566271 74.3833984,7.95996305 74.3833984,7.53808594 Z M78.7800781,14.6748047 C78.7800781,13.1689378 79.1052702,11.9824262 79.7556641,11.1152344 C80.4060579,10.2480425 81.314252,9.81445312 82.4802734,9.81445312 C83.329887,9.81445312 84.0447237,10.1484342 84.6248047,10.8164062 L84.6248047,6 L87.5955078,6 L87.5955078,19.5 L84.9324219,19.5 L84.7830078,18.4804688 C84.1736298,19.2773477 83.4002,19.6757812 82.4626953,19.6757812 C81.3318303,19.6757812 80.4353549,19.2421918 79.7732422,18.375 C79.1111295,17.5078082 78.7800781,16.2744221 78.7800781,14.6748047 Z M81.7419922,14.859375 C81.7419922,16.5468834 82.2341748,17.390625 83.2185547,17.390625 C83.874808,17.390625 84.3435533,17.1152371 84.6248047,16.5644531 L84.6248047,12.9433594 C84.3552721,12.3808566 83.8923861,12.0996094 83.2361328,12.0996094 C82.3220657,12.0996094 81.8269535,12.8378832 81.7507812,14.3144531 L81.7419922,14.859375 Z M92.203125,19.5 L89.2324219,19.5 L89.2324219,9.99023438 L92.203125,9.99023438 L92.203125,19.5 Z M89.0566406,7.53808594 C89.0566406,7.11620883 89.2089828,6.77050916 89.5136719,6.50097656 C89.8183609,6.23144396 90.2138647,6.09667969 90.7001953,6.09667969 C91.1865259,6.09667969 91.5820297,6.23144396 91.8867187,6.50097656 C92.1914078,6.77050916 92.34375,7.11620883 92.34375,7.53808594 C92.34375,7.95996305 92.1914078,8.30566271 91.8867187,8.57519531 C91.5820297,8.84472791 91.1865259,8.97949219 90.7001953,8.97949219 C90.2138647,8.97949219 89.8183609,8.84472791 89.5136719,8.57519531 C89.2089828,8.30566271 89.0566406,7.95996305 89.0566406,7.53808594 Z M99.183789,19.5 C99.0783198,19.3066397 98.9845707,19.0224628 98.902539,18.6474609 C98.3576144,19.3330112 97.5959033,19.6757812 96.6173828,19.6757812 C95.7208939,19.6757812 94.9591828,19.4047879 94.3322265,18.862793 C93.7052703,18.3207981 93.3917969,17.6396525 93.3917969,16.8193359 C93.3917969,15.7880808 93.7726524,15.0087917 94.534375,14.4814453 C95.2960975,13.9540989 96.4035083,13.6904297 97.8566406,13.6904297 L98.7707031,13.6904297 L98.7707031,13.1894531 C98.7707031,12.3164019 98.3927772,11.8798828 97.636914,11.8798828 C96.9337855,11.8798828 96.5822265,12.2255825 96.5822265,12.9169922 L93.6203125,12.9169922 C93.6203125,11.9970657 94.0114219,11.2500029 94.7936523,10.6757812 C95.5758828,10.1015596 96.5734314,9.81445312 97.7863281,9.81445312 C98.9992248,9.81445312 99.957223,10.1103486 100.660352,10.7021484 C101.36348,11.2939483 101.723828,12.1054636 101.741406,13.1367188 L101.741406,17.3466797 C101.753125,18.2197309 101.887889,18.887693 102.145703,19.3505859 L102.145703,19.5 L99.183789,19.5 Z M97.3292969,17.5664062 C97.6984393,17.5664062 98.0045886,17.4873055 98.2477539,17.3291016 C98.4909192,17.1708976 98.6652338,16.9921885 98.7707031,16.7929688 L98.7707031,15.2724609 L97.909375,15.2724609 C96.8781198,15.2724609 96.3625,15.7353469 96.3625,16.6611328 C96.3625,16.9306654 96.4533194,17.1489249 96.6349609,17.315918 C96.8166025,17.482911 97.0480455,17.5664062 97.3292969,17.5664062 Z M105.900781,9.99023438 L105.997461,11.1064453 C106.653714,10.2451129 107.558979,9.81445312 108.713281,9.81445312 C109.703521,9.81445312 110.443259,10.1103486 110.93252,10.7021484 C111.42178,11.2939483 111.675195,12.1845644 111.692773,13.3740234 L111.692773,19.5 L108.72207,19.5 L108.72207,13.4970703 C108.72207,13.0165992 108.625392,12.6635753 108.432031,12.4379883 C108.238671,12.2124012 107.887112,12.0996094 107.377344,12.0996094 C106.797263,12.0996094 106.366603,12.3281227 106.085352,12.7851562 L106.085352,19.5 L103.123437,19.5 L103.123437,9.99023438 L105.900781,9.99023438 Z" id="Obsidian" fill="#25E2F5"></path>
                <path d="M6.20433259,5.08708206 C-0.536536081,8.83800496 -2.69226543,14.7897403 4.34555831,19.3535518 C11.383382,23.9173633 18.2253829,28.6101369 24.263344,24.2906053 C30.3013051,19.9710737 40.0192127,6.10054238 34.4486329,1.88180773 C28.8780532,-2.33692692 12.9452013,1.33615916 6.20433259,5.08708206 Z" id="Path-6-Copy" fill="#25E2F5"></path>
                <path d="M8.02759766,6.30445405 C2.32378571,9.47831189 0.499707029,14.5143956 6.45478865,18.3760823 C12.4098703,22.237769 18.1992557,26.2085773 23.3082997,22.5535891 C28.4173437,18.8986008 36.6401885,7.1619974 31.926621,3.59229885 C27.2130535,0.0226002992 13.7314096,3.13059622 8.02759766,6.30445405 Z" id="Path-6-Copy" fill="#1C636A"></path>
                <path d="M12.2644335,10.6765878 C8.71769948,12.6501503 7.58345419,15.7816787 11.2864322,18.1829457 C14.9894102,20.5842127 18.5893553,23.0533335 21.7662518,20.7805954 C24.9431482,18.5078572 30.0562627,11.2098238 27.1252807,8.99012038 C24.1942987,6.77041691 15.8111674,8.70302528 12.2644335,10.6765878 Z" id="Path-6-Copy" fill="#000000"></path>
            </g>
        </g>
    </g>
</svg>