<?xml version="1.0" encoding="UTF-8"?>
<svg width="32px" height="32px" viewBox="0 0 32 32" version="1.1" xmlns="http://www.w3.org/2000/svg" xmlns:xlink="http://www.w3.org/1999/xlink">
    <!-- Generator: Sketch 46.1 (44463) - http://www.bohemiancoding.com/sketch -->
    <title>Icon_03</title>
    <desc>Created with Sketch.</desc>
    <defs></defs>
    <g id="Symbols" stroke="none" stroke-width="1" fill="none" fill-rule="evenodd">
        <g id="Icon_03">
            <circle id="Oval" fill="#ED94FF" opacity="0.2" cx="16" cy="16" r="16"></circle>
            <path d="M12.0068633,12.8862808 C12.8837524,12.0132765 14.0928502,11.4736842 15.4279765,11.4736842 C16.4465154,11.4736842 17.3917079,11.7877179 18.1720134,12.3242449 L19.1214965,11.2305795 C18.8128747,10.7934467 18.6315789,10.2600006 18.6315789,9.68421053 C18.6315789,8.20176199 19.8333409,7 21.3157895,7 C22.798238,7 24,8.20176199 24,9.68421053 C24,11.1666591 22.798238,12.3684211 21.3157895,12.3684211 C20.7556458,12.3684211 20.2355761,12.1968445 19.8052685,11.9033797 L18.9038527,12.9416786 C19.7536375,13.81515 20.2770056,15.0078121 20.2770056,16.3227133 C20.2770056,17.4453975 19.895469,18.478969 19.2549852,19.3008385 L20.4548039,20.5560877 C20.6494042,20.4692981 20.8649743,20.4210526 21.0918127,20.4210526 C21.9564127,20.4210526 22.6573096,21.1219495 22.6573096,21.9865495 C22.6573096,22.8511496 21.9564127,23.5520464 21.0918127,23.5520464 C20.2272126,23.5520464 19.5263158,22.8511496 19.5263158,21.9865495 C19.5263158,21.6745292 19.6175987,21.383829 19.7749161,21.1396976 L18.641588,19.9540109 C17.7860191,20.7117347 16.6607181,21.1717424 15.4279765,21.1717424 C14.3403586,21.1717424 13.3363736,20.8136677 12.5274788,20.2089757 L11.9172665,21.0225921 C12.1979461,21.3385733 12.3684211,21.7546415 12.3684211,22.2105263 C12.3684211,23.1988253 11.5672464,24 10.5789474,24 C9.59064834,24 8.78947368,23.1988253 8.78947368,22.2105263 C8.78947368,21.2222273 9.59064834,20.4210526 10.5789474,20.4210526 C10.7875645,20.4210526 10.9878439,20.4567512 11.1740099,20.5223728 L11.8605277,19.6070156 C11.064874,18.7432087 10.5789474,17.5897081 10.5789474,16.3227133 C10.5789474,15.3021523 10.8942292,14.3552292 11.4327062,13.5740309 L10.5980762,12.8014244 C10.2210058,13.0910129 9.74902729,13.2631579 9.23684211,13.2631579 C8.00146832,13.2631579 7,12.2616896 7,11.0263158 C7,9.79094201 8.00146832,8.78947368 9.23684211,8.78947368 C10.4722159,8.78947368 11.4736842,9.79094201 11.4736842,11.0263158 C11.4736842,11.4259328 11.3688922,11.8010742 11.1852888,12.1257595 L12.0068633,12.8862808 Z M15.4279765,19.6649523 C17.2738441,19.6649523 18.7702155,18.1685809 18.7702155,16.3227133 C18.7702155,14.4768457 17.2738441,12.9804743 15.4279765,12.9804743 C13.5821088,12.9804743 12.0857375,14.4768457 12.0857375,16.3227133 C12.0857375,18.1685809 13.5821088,19.6649523 15.4279765,19.6649523 Z" id="Combined-Shape" fill="#FFFFFF" fill-rule="nonzero" opacity="0.699999988" style="mix-blend-mode: overlay;"></path>
        </g>
    </g>
</svg>